# xmcd CD database file
#
# Track frame offsets:
#	150
#	19750
#	39137
#	56247
#	72365
#	92600
#	115435
#	134572
#	154255
#	179177
#	200145
#
# Disc length: 2928 seconds
#
# Revision: 0
# Processed by: cddbd v1.5.2PL0 Copyright (c) Steve Scherf et al.
# Submitted via: CDex 1.70beta2
#
DISCID=a60b6e0b
DTITLE=yasue - Cosmic Pandra
DYEAR=1998
DGENRE=New Age
TTITLE0=Peaceful Village
TTITLE1=El-Dorado
TTITLE2=Cross-East
TTITLE3=Haru Hiyo
TTITLE4=Lakshimi
TTITLE5=Suri Ya
TTITLE6=Chora Song
TTITLE7=Kabal from Cosmic Pandora
TTITLE8=Native Mind
TTITLE9=Ancient Quest
TTITLE10=Fairy Circle
EXTD=YEAR: 1998
EXTT0=
EXTT1=
EXTT2=
EXTT3=
EXTT4=
EXTT5=
EXTT6=
EXTT7=
EXTT8=
EXTT9=
EXTT10=
PLAYORDER=
